<svg width="41" height="41" fill="none" xmlns="http://www.w3.org/2000/svg"><path d="M34.718 12.537a2.517 2.517 0 0 0-.917-.95L21.568 4.521a2.783 2.783 0 0 0-2.567 0L6.768 11.587a2.8 2.8 0 0 0-1.284 2.217v14.133c.012.447.139.883.367 1.267.215.393.532.72.917.95L19 37.221a2.783 2.783 0 0 0 2.567 0L33.8 30.154c.385-.23.701-.557.917-.95.228-.384.354-.82.366-1.267V13.804a2.618 2.618 0 0 0-.366-1.267Zm-14.434 18.2a9.866 9.866 0 1 1 8.55-14.866l-1.883 1.183-.6.333-1.667 1.017a5 5 0 0 0-9.4 2.467 4.8 4.8 0 0 0 .667 2.466 5 5 0 0 0 8.55 0l4.333 2.534a9.9 9.9 0 0 1-8.55 4.866Zm9.867-9.316h-1.1v1.116h-1.083v-1.1H26.95v-1.1h1.1v-1.133h1.083v1.1h1.1l-.083 1.117Zm4.117 0h-1.1v1.116h-1.1v-1.1h-1.084v-1.1h1.084v-1.133h1.1v1.1h1.1v1.117Z" fill="#454A54"/></svg>