<svg width="45" height="41" fill="none" xmlns="http://www.w3.org/2000/svg"><path fill-rule="evenodd" clip-rule="evenodd" d="M7.643.87C3.564.87.284 4.293.284 8.485c0 2.548 1.214 4.812 3.079 6.193a7.689 7.689 0 0 0-3.079 6.194c0 2.55 1.214 4.811 3.079 6.193a7.687 7.687 0 0 0-3.079 6.193c0 4.192 3.28 7.614 7.359 7.614 4.076 0 7.358-3.422 7.358-7.614v-6.436a7.178 7.178 0 0 0 4.592 1.665c4.078-.002 7.358-3.424 7.358-7.615 0-2.55-1.212-4.812-3.078-6.194a7.688 7.688 0 0 0 3.078-6.193c0-4.192-3.28-7.613-7.358-7.613H7.643ZM3.049 8.485c0-2.652 2.07-4.775 4.594-4.775h4.591v9.55H7.643c-2.524 0-4.594-2.125-4.594-4.775Zm16.544 4.773H15v-9.55h4.592c2.525 0 4.593 2.125 4.593 4.777 0 2.65-2.068 4.773-4.593 4.773ZM3.05 20.871c0-2.65 2.07-4.775 4.593-4.775h4.592v9.55H7.643c-2.525 0-4.594-2.125-4.594-4.775h.002Zm11.95 0c0-2.65 2.07-4.775 4.593-4.775 2.525 0 4.594 2.123 4.594 4.775 0 2.65-2.069 4.775-4.594 4.775-2.523 0-4.591-2.124-4.591-4.775H15ZM3.051 33.257c0-2.65 2.07-4.773 4.593-4.773h4.592v4.773c0 2.652-2.067 4.775-4.592 4.775-2.523 0-4.593-2.123-4.593-4.775Z" fill="#454A54"/></svg>