<?xml version="1.0" encoding="UTF-8" standalone="no"?><!DOCTYPE svg PUBLIC "-//W3C//DTD SVG 1.1//EN" "http://www.w3.org/Graphics/SVG/1.1/DTD/svg11.dtd"><svg width="100%" height="100%" viewBox="0 0 462 397" version="1.1" xmlns="http://www.w3.org/2000/svg" xmlns:xlink="http://www.w3.org/1999/xlink" xml:space="preserve" xmlns:serif="http://www.serif.com/" style="fill-rule:evenodd;clip-rule:evenodd;stroke-linejoin:round;stroke-miterlimit:2;"><g><path id="Folder" d="M428.908,44.48l-240.706,0c-3.297,0 -6.595,-1.1 -8.793,-4.4l-19.784,-26.401c-6.594,-8.8 -16.486,-13.201 -26.378,-13.201l-100.02,0c-18.685,0 -32.973,14.301 -32.973,33.002l-0,330.013c-0,18.7 14.288,33.001 32.973,33.001l395.681,-0c18.685,-0 32.973,-14.301 32.973,-33.001l0,-286.012c0,-17.6 -15.387,-33.001 -32.973,-33.001Zm-395.681,-22.001l95.623,0c6.595,0 13.189,3.3 17.586,8.801l19.784,26.401c4.396,5.5 10.991,8.8 17.586,8.8l245.102,0c6.595,0 10.991,4.4 10.991,11l-0,33.002l-417.663,-0l0,-77.003c0,-5.5 4.397,-11.001 10.991,-11.001Zm395.681,352.014l-395.681,0c-6.594,0 -10.991,-4.4 -10.991,-11l0,-220.009c0,-6.075 4.921,-11 10.991,-11c58.908,-0 336.773,-0 395.681,-0c6.07,-0 10.991,4.925 10.991,11c-0,45.93 -0,220.009 -0,220.009c-0,6.6 -5.496,11 -10.991,11Z" style="fill:#3f72af;fill-rule:nonzero;"/><g><g><path d="M354.366,352.074l0.063,-45.031l8.111,0.058l-0.088,45.102l6.999,0.068l38.698,-38.865l-14.457,-0.007l-20.907,21.03l-0.019,-27.495l33.924,0.059l5.113,-5.178l-5.113,-4.994l-33.856,-0.019l-0.036,-27.494l21.135,21.218l14.462,-0.025l-37.848,-37.698l-8.028,-0.014l-0.043,43.981l-8.039,0.1l-0.049,-43.987l-30.991,30.999l14.449,0.008l6.218,-6.195l0.132,48.434l-12.088,-12.629l-14.114,0.025l36.372,38.549Z" style="fill:#3f72af;"/></g></g></g></svg>