<svg width="22" height="21" viewBox="0 0 22 21" fill="none" xmlns="http://www.w3.org/2000/svg">
<path d="M15.6443 20.9167C15.3561 20.9167 15.0798 20.8069 14.876 20.6116C14.6723 20.4162 14.5578 20.1513 14.5578 19.875V17.1667C14.5916 16.8551 14.5568 16.5403 14.4557 16.2424C14.3547 15.9446 14.1896 15.6704 13.9711 15.4375C13.8358 15.2968 13.7436 15.1232 13.7045 14.9356C13.6654 14.748 13.6809 14.5537 13.7493 14.374C13.8178 14.1943 13.9366 14.0361 14.0926 13.9169C14.2486 13.7976 14.4359 13.7219 14.6339 13.6979C17.2848 13.3958 19.7294 12.5833 19.7294 8.17707C19.7302 7.35424 19.4769 6.54959 19.0015 5.86457C18.5627 5.23398 18.4025 4.46235 18.556 3.71874C18.6539 3.23366 18.6539 2.73507 18.556 2.24999C17.7425 2.51372 16.9765 2.89673 16.2853 3.38541C16.1546 3.47438 16.005 3.53453 15.8472 3.56154C15.6894 3.58856 15.5274 3.58177 15.3727 3.54166C13.4119 3.01047 11.3361 3.01047 9.37534 3.54166C9.22062 3.58177 9.05855 3.58856 8.90077 3.56154C8.74298 3.53453 8.59339 3.47438 8.4627 3.38541C7.7673 2.89107 6.99318 2.50766 6.17025 2.24999C6.06693 2.73456 6.06693 3.23417 6.17025 3.71874C6.31267 4.47171 6.14522 5.2483 5.70307 5.88541C5.22966 6.57522 4.97666 7.38257 4.97514 8.20832C4.97514 12.2604 7.0177 13.3437 10.0815 13.7187C10.282 13.7426 10.4716 13.8196 10.629 13.941C10.7864 14.0625 10.9053 14.2236 10.9724 14.4062C11.0356 14.5835 11.0478 14.7738 11.0076 14.9571C10.9675 15.1404 10.8765 15.31 10.7443 15.4479C10.533 15.6645 10.3708 15.9207 10.2679 16.2004C10.1651 16.4801 10.1238 16.7772 10.1467 17.0729V19.875C10.1467 20.1513 10.0323 20.4162 9.82851 20.6116C9.62476 20.8069 9.34841 20.9167 9.06026 20.9167C8.77211 20.9167 8.49576 20.8069 8.29201 20.6116C8.08826 20.4162 7.97379 20.1513 7.97379 19.875V19.2812C6.90619 19.399 5.82479 19.2618 4.82584 18.882C3.82689 18.5021 2.94137 17.8914 2.2481 17.1042C1.89174 16.7255 1.46419 16.4145 0.987795 16.1875C0.849398 16.1533 0.719381 16.0933 0.605169 16.0109C0.490957 15.9285 0.394786 15.8254 0.322147 15.7074C0.249507 15.5894 0.201822 15.4588 0.181814 15.3232C0.161806 15.1875 0.169867 15.0493 0.205536 14.9167C0.241206 14.784 0.303785 14.6593 0.389701 14.5498C0.475618 14.4403 0.583189 14.3481 0.706272 14.2785C0.829355 14.2088 0.965541 14.1631 1.10705 14.1439C1.24857 14.1247 1.39263 14.1325 1.53103 14.1667C2.3668 14.4586 3.11358 14.9454 3.70397 15.5833C4.79044 16.625 5.87691 17.5417 7.9412 17.1667C7.9049 16.6074 7.98999 16.047 8.19109 15.5208C5.95296 14.9792 2.75874 13.4375 2.75874 8.22916C2.75588 6.99544 3.13391 5.7885 3.84521 4.76041C3.97733 4.57062 4.02793 4.33926 3.98645 4.11457C3.76691 2.99017 3.89143 1.82888 4.34499 0.770824C4.40661 0.629745 4.49989 0.503409 4.61819 0.400791C4.73648 0.298174 4.8769 0.221792 5.02946 0.177073C5.39886 0.0729068 6.72435 -0.135427 9.2341 1.42707C11.2658 0.958328 13.3844 0.958328 15.4161 1.42707C17.9259 -0.135427 19.2513 0.0624901 19.6099 0.177073C19.7624 0.221792 19.9029 0.298174 20.0212 0.400791C20.1395 0.503409 20.2327 0.629745 20.2944 0.770824C20.7488 1.83232 20.8733 2.99718 20.6529 4.12499C20.6307 4.22661 20.6298 4.33145 20.6503 4.4334C20.6708 4.53535 20.7123 4.63235 20.7724 4.71874C21.4858 5.74979 21.8639 6.96064 21.8589 8.19791C21.8589 13.4792 18.6864 15.0104 16.4265 15.4896C16.6256 16.0485 16.7069 16.6398 16.6656 17.2292V19.875C16.666 20.1408 16.5606 20.3967 16.3707 20.5903C16.1809 20.784 15.921 20.9007 15.6443 20.9167Z" fill="black"/>
</svg>
