<svg width="41" height="41" fill="none" xmlns="http://www.w3.org/2000/svg"><g clip-path="url(#a)"><path d="M15.254 31.125s-1.53.891 1.086 1.19c3.17.365 4.791.314 8.281-.351 0 0 .917.58 2.2 1.081-7.831 3.354-17.721-.201-11.569-1.92h.002Zm-.959-4.375s-1.719 1.269.899 1.535c3.393.351 6.061.385 10.69-.506 0 0 .639.645 1.648 1.001-9.466 2.766-20.013.215-13.236-2.03h-.001Zm8.066-7.427c1.927 2.22-.509 4.218-.509 4.218s4.897-2.533 2.65-5.696c-2.1-2.956-3.716-4.42 5.007-9.48 0 0-13.691 3.419-7.149 10.959l.001-.001Zm10.353 15.045s1.133.93-1.244 1.653c-4.519 1.367-18.809 1.777-22.78.052-1.425-.62 1.25-1.484 2.09-1.66.879-.195 1.38-.155 1.38-.155-1.589-1.12-10.26 2.193-4.406 3.143 15.97 2.592 29.106-1.165 24.96-3.033ZM15.989 22.213s-7.271 1.725-2.579 2.35c1.986.266 5.939.208 9.624-.104 3.006-.255 6.029-.795 6.029-.795s-1.062.455-1.83.984c-7.384 1.94-21.647 1.035-17.54-.95 3.47-1.674 6.296-1.485 6.296-1.485Zm13.04 7.29c7.5-3.905 4.03-7.65 1.615-7.14-.594.116-.86.228-.86.228s.215-.346.639-.495c4.79-1.686 8.476 4.967-1.544 7.604 0-.006.118-.104.15-.195v-.001ZM24.504.194s4.155 4.155-3.945 10.547c-6.49 5.13-1.479 8.054 0 11.394-3.789-3.419-6.569-6.425-4.707-9.225 2.74-4.121 10.325-6.114 8.652-12.715Zm-7.78 39.877c7.201.455 18.261-.26 18.53-3.665 0 0-.509 1.289-5.959 2.316-6.145 1.16-13.73 1.022-18.229.28 0 0 .925.762 5.656 1.07h.002Z" fill="#454A54"/></g><defs><clipPath id="a"><path fill="#fff" transform="translate(.5 .194)" d="M0 0h40v40H0z"/></clipPath></defs></svg>