<svg width="41" height="41" fill="none" xmlns="http://www.w3.org/2000/svg"><g clip-path="url(#a)"><path d="M39.023 29.59c-2.264-5.717-4.144-11.58-6.307-17.336-.955-2.45-1.89-4.92-3.193-7.213-.517-.823-1.012-1.728-1.86-2.255a1.24 1.24 0 0 0-.694-.189c-.397.008-.792.186-1.096.442-1.138.902-1.813 2.213-2.57 3.421-1.337 2.242-2.746 4.59-4.982 6.047-1.05.74-2.425.821-3.437 1.616-1.384 1.043-2.325 2.524-3.46 3.807-.26.31-.66.432-1.01.6-3.386 1.38-6.775 2.759-10.13 4.21 2.841 2.197 5.869 4.152 8.766 6.274.795-.157 1.593-.484 2.413-.339 1.299.407 2.06 1.653 2.656 2.791 1.211 2.482 2.086 5.102 3.067 7.678 1.64-.116 3.116-.961 4.383-1.955 2.44-1.977 4.3-4.531 6.346-6.89.98-1.03 1.98-2.26 3.453-2.546 1.488-.36 3.082.173 4.186 1.198 1.548 1.384 2.92 2.985 4.73 4.044-.243-1.198-.826-2.273-1.261-3.405ZM13.709 25.56c-1.428.846-2.945 1.54-4.43 2.279-2.33-1.561-4.6-3.215-6.89-4.833 3.087-1.353 6.222-2.61 9.35-3.87 1.482 1.157 3.011 2.256 4.493 3.413-.697 1.113-1.536 2.148-2.522 3.011Zm3.177-3.878c-1.472-1.107-2.964-2.184-4.414-3.319.93-1.268 1.949-2.493 3.169-3.492.807-.518 1.794-.66 2.633-1.128 1.99-.993 3.347-2.816 4.643-4.556-1.662 4.313-3.435 8.645-6.03 12.495Z" fill="#454A54"/></g><defs><clipPath id="a"><path fill="#fff" transform="translate(.284 .87)" d="M0 0h40v40H0z"/></clipPath></defs></svg>