<svg width="41" height="41" fill="none" xmlns="http://www.w3.org/2000/svg"><g clip-path="url(#a)"><path d="M20.5 40.121c-.57 0-1.1-.148-1.595-.405l-5.048-2.897c-.759-.403-.379-.55-.15-.623 1.023-.33 1.213-.403 2.276-.992.114-.073.267-.036.38.037l3.872 2.238c.15.074.342.074.455 0l15.145-8.473c.15-.073.227-.22.227-.403v-16.91c0-.184-.075-.33-.227-.404L20.69 2.854c-.152-.073-.342-.073-.455 0L5.09 11.29c-.152.074-.228.257-.228.404v16.91c0 .146.076.33.228.403l4.137 2.312c2.24 1.1 3.643-.184 3.643-1.467v-16.69c0-.22.19-.44.457-.44h1.935c.228 0 .455.183.455.44V29.85c0 2.899-1.632 4.585-4.479 4.585-.873 0-1.556 0-3.491-.916l-3.985-2.2a3.078 3.078 0 0 1-1.595-2.679V11.73c0-1.1.606-2.126 1.595-2.676L18.907.578a3.492 3.492 0 0 1 3.186 0L37.24 9.05a3.076 3.076 0 0 1 1.593 2.677v16.91a3.08 3.08 0 0 1-1.593 2.678l-15.147 8.472a4 4 0 0 1-1.593.33v.003Zm4.668-11.628c-6.641 0-8.008-2.934-8.008-5.429 0-.22.19-.44.455-.44h1.973c.229 0 .417.147.417.367.305 1.943 1.178 2.897 5.202 2.897 3.188 0 4.555-.697 4.555-2.347 0-.953-.38-1.65-5.352-2.127-4.138-.405-6.718-1.283-6.718-4.475 0-2.971 2.58-4.733 6.908-4.733 4.858 0 7.25 1.615 7.553 5.137a.579.579 0 0 1-.115.33c-.075.073-.188.146-.303.146h-1.973a.441.441 0 0 1-.417-.33c-.457-2.016-1.633-2.678-4.745-2.678-3.493 0-3.91 1.173-3.91 2.053 0 1.065.493 1.395 5.2 1.982 4.668.587 6.87 1.43 6.87 4.583-.038 3.23-2.77 5.064-7.592 5.064Z" fill="#454A54"/></g><defs><clipPath id="a"><path fill="#fff" transform="translate(.5 .194)" d="M0 0h40v40H0z"/></clipPath></defs></svg>