<svg width="41" height="41" fill="none" xmlns="http://www.w3.org/2000/svg"><g clip-path="url(#a)" fill="#454A54"><path d="M20.357.194C10.2.194 10.833 4.62 10.833 4.62l.012 4.586h9.69v1.377H7S.5 9.842.5 20.142s5.672 9.934 5.672 9.934h3.383v-4.779s-.182-5.7 5.583-5.7h9.61s5.4.087 5.4-5.247V5.53S30.967.195 20.355.195h.002Zm-5.344 3.083c.964 0 1.744.784 1.744 1.754 0 .968-.78 1.751-1.744 1.751a1.746 1.746 0 0 1-1.743-1.751c0-.97.778-1.754 1.743-1.754Z"/><path d="M20.645 40.194c10.153 0 9.52-4.427 9.52-4.427l-.012-4.587h-9.69v-1.376h13.539s6.5.742 6.5-9.558-5.674-9.934-5.674-9.934h-3.383v4.779s.182 5.7-5.583 5.7h-9.609s-5.4-.087-5.4 5.246v8.82s-.82 5.337 9.792 5.337Zm5.343-3.084a1.746 1.746 0 0 1-1.743-1.753c0-.968.778-1.752 1.743-1.752.964 0 1.744.784 1.744 1.752 0 .97-.78 1.754-1.744 1.754Z"/></g><defs><clipPath id="a"><path fill="#fff" transform="translate(.5 .194)" d="M0 0h40v40H0z"/></clipPath></defs></svg>