<svg width="41" height="41" fill="none" xmlns="http://www.w3.org/2000/svg"><g clip-path="url(#a)" fill="#454A54"><path d="M40.5 19.675c0-2.65-3.318-5.161-8.407-6.718 1.175-5.185.654-9.311-1.646-10.633a3.575 3.575 0 0 0-1.827-.455v1.817c.375 0 .677.075.93.213 1.108.637 1.59 3.057 1.215 6.171a24.98 24.98 0 0 1-.417 2.397 39.5 39.5 0 0 0-5.176-.888 39.762 39.762 0 0 0-3.392-4.077c2.658-2.47 5.153-3.823 6.85-3.823V1.86c-2.243 0-5.178 1.598-8.147 4.37-2.966-2.754-5.903-4.337-8.145-4.337V3.71c1.689 0 4.192 1.346 6.85 3.8a38.717 38.717 0 0 0-3.368 4.068c-1.747.179-3.48.478-5.185.896a24.472 24.472 0 0 1-.425-2.363c-.383-3.116.09-5.536 1.192-6.18.243-.146.561-.213.936-.213V1.902c-.683 0-1.305.147-1.841.455C8.205 3.68 7.692 7.796 8.873 12.965 3.802 14.533.5 17.035.5 19.675c0 2.65 3.318 5.162 8.407 6.717-1.175 5.187-.654 9.314 1.646 10.634.53.31 1.15.456 1.834.456 2.243 0 5.178-1.598 8.146-4.37 2.967 2.755 5.902 4.337 8.145 4.337a3.633 3.633 0 0 0 1.842-.457c2.292-1.32 2.805-5.436 1.623-10.606 5.055-1.557 8.357-4.069 8.357-6.71Zm-10.617-5.438a36.68 36.68 0 0 1-1.1 3.22 44.07 44.07 0 0 0-2.241-3.865 36.67 36.67 0 0 1 3.343.645h-.002Zm-3.733 8.684a43.22 43.22 0 0 1-1.965 3.114 42.429 42.429 0 0 1-7.353.009 42.425 42.425 0 0 1-3.669-6.343 43.432 43.432 0 0 1 3.654-6.367 42.419 42.419 0 0 1 7.351-.01 44.38 44.38 0 0 1 1.974 3.1 41.786 41.786 0 0 1 1.696 3.243 45.653 45.653 0 0 1-1.688 3.253Zm2.633-1.06c.44 1.091.817 2.184 1.125 3.244a35.875 35.875 0 0 1-3.358.652 45.08 45.08 0 0 0 2.233-3.897Zm-8.266 8.7a33.492 33.492 0 0 1-2.267-2.61c.733.033 1.483.058 2.242.058.766 0 1.525-.017 2.266-.058a31.684 31.684 0 0 1-2.241 2.61Zm-6.067-4.804a36.851 36.851 0 0 1-3.343-.643 36.752 36.752 0 0 1 1.1-3.22c.335.65.686 1.303 1.07 1.957a52.55 52.55 0 0 0 1.173 1.906Zm6.025-16.966a33.52 33.52 0 0 1 2.267 2.61 49.396 49.396 0 0 0-2.242-.059c-.767 0-1.525.017-2.267.058a31.71 31.71 0 0 1 2.242-2.61Zm-6.033 4.803a45.013 45.013 0 0 0-2.234 3.888 34.964 34.964 0 0 1-1.125-3.245 38.863 38.863 0 0 1 3.359-.643ZM7.063 23.8c-2.886-1.23-4.753-2.845-4.753-4.125 0-1.28 1.867-2.904 4.753-4.125.7-.302 1.467-.572 2.259-.824a39.556 39.556 0 0 0 1.833 4.965 38.602 38.602 0 0 0-1.808 4.94 24.777 24.777 0 0 1-2.284-.832Zm4.387 11.65c-1.108-.634-1.59-3.057-1.215-6.17.09-.767.237-1.575.417-2.399a39.36 39.36 0 0 0 5.176.89 39.797 39.797 0 0 0 3.392 4.077c-2.658 2.47-5.153 3.823-6.85 3.823a1.945 1.945 0 0 1-.92-.22v-.002Zm19.34-6.212c.383 3.115-.09 5.537-1.192 6.18-.243.147-.561.212-.936.212-1.689 0-4.192-1.346-6.85-3.8a38.353 38.353 0 0 0 3.368-4.067 38.083 38.083 0 0 0 5.185-.897c.188.823.333 1.613.425 2.372Zm3.138-5.439c-.7.302-1.466.572-2.258.824a39.144 39.144 0 0 0-1.833-4.965 38.556 38.556 0 0 0 1.808-4.94c.808.252 1.573.53 2.292.832 2.886 1.23 4.753 2.844 4.753 4.124-.008 1.28-1.875 2.904-4.762 4.125Z"/><path d="M20.492 23.402a3.726 3.726 0 1 0 0-7.453 3.726 3.726 0 0 0 0 7.453Z"/></g><defs><clipPath id="a"><path fill="#fff" transform="translate(.5 .194)" d="M0 0h40v40H0z"/></clipPath></defs></svg>