<?xml version="1.0" encoding="UTF-8" standalone="no"?>
<!DOCTYPE svg PUBLIC "-//W3C//DTD SVG 1.1//EN" "http://www.w3.org/Graphics/SVG/1.1/DTD/svg11.dtd">
<svg width="100%" height="100%" viewBox="0 0 1600 1600" version="1.1" xmlns="http://www.w3.org/2000/svg" xmlns:xlink="http://www.w3.org/1999/xlink" xml:space="preserve" xmlns:serif="http://www.serif.com/" style="fill-rule:evenodd;clip-rule:evenodd;stroke-linejoin:round;stroke-miterlimit:2;">
    <g transform="matrix(1.17614,0,0,1.17614,-141.61,-136.179)">
        <path d="M800.035,533.173L1432.96,333.497L1432.99,1199.92L800.001,1466.56L800.035,533.173ZM900.193,683.363L966.626,660.578L1025.15,1046.79L1096.13,615.518L1149.85,597.308L1218.23,971.588L1272.31,554.386L1333.36,533.219L1252.17,1091.26L1192.02,1116.07L1123.63,752.586L1051.85,1173.77L988.316,1200.11L900.193,683.363Z" style="fill:rgb(68,73,83);"/>
    </g>
    <g transform="matrix(1.17614,0,0,1.17614,-141.61,-136.179)">
        <path d="M333.993,931.904L401.924,956.391C400.839,990.785 412.844,1020.92 430.142,1042.13C452.106,1065.48 477.161,1080.93 506.065,1086.57C532.659,1091.32 548.612,1085.44 558.242,1061.9C563.529,1043.18 562.084,1022.5 556.92,1002.02C549.381,981.083 533.218,962.184 512.958,944.271C489.379,922.827 457.932,903.028 432.86,879.477C403.41,853.758 378.697,822.399 360.068,783.798C347.234,751.353 341.294,716.593 348.26,677.488C360.932,621.712 393.693,600.984 439.529,599.919C470.16,601.051 499.656,609.525 523.721,624.23C565.723,649.894 589.321,679.718 605.709,710.401C624.717,743.908 632.12,780.107 632.834,818.817L561.753,795.692C561.348,772.01 557.154,750.346 546.662,732.528C531.445,704.048 505.436,684.722 470.267,677.818C440.258,674.8 425.029,683.491 418.282,703.88C412.329,725.599 413.096,745.816 421.286,764.909C434.086,790.954 456.259,811.634 480.377,831.201C511.257,853.412 539.303,875.267 563.473,899.844C582.861,919.17 598.491,941.061 611.236,964.902C626.62,994.918 632.145,1024.49 633.037,1053.96C634.237,1091.17 627.09,1120.95 613.516,1135.49C590.8,1166.48 556.691,1172.86 514.359,1162.95C487.675,1156.85 459.875,1145.89 425.973,1119.16C398.249,1098 376.449,1071.31 360.032,1039.93C343.075,1008 333.792,972.266 333.993,931.904ZM167.011,1200L800.001,1466.56L800.035,533.174L166.989,333.026L167.011,1200Z" style="fill:rgb(84,87,98);"/>
    </g>
    <g transform="matrix(1.17614,0,0,1.17614,-141.61,-136.179)">
        <path d="M166.99,333.026L800.035,533.175L1432.96,333.497L800.001,133.36L166.99,333.026Z" style="fill:rgb(88,92,103);"/>
    </g>
</svg>
