<svg width="41" height="41" fill="none" xmlns="http://www.w3.org/2000/svg"><g clip-path="url(#a)"><path d="M.5 20.194v20h40v-40H.5v20Zm32.233-1.595a5.03 5.03 0 0 1 2.506 1.445c.365.39.911 1.106.957 1.282.013.053-1.725 1.218-2.78 1.87-.038.025-.195-.137-.365-.392-.514-.749-1.055-1.074-1.881-1.133-1.211-.078-1.993.554-1.986 1.615-.007.26.051.517.168.75.268.553.77.884 2.318 1.555 2.865 1.23 4.089 2.044 4.85 3.197.852 1.288 1.041 3.346.469 4.882-.638 1.66-2.214 2.793-4.428 3.164-.683.124-2.311.104-3.047-.033-1.608-.286-3.131-1.08-4.069-2.122-.371-.404-1.087-1.465-1.041-1.536.02-.027.182-.13.365-.235l1.485-.86 1.152-.67.242.357c.338.514 1.073 1.218 1.517 1.451 1.276.678 3.028.58 3.894-.195a1.46 1.46 0 0 0 .521-1.197c0-.463-.059-.67-.3-1.016-.313-.443-.944-.82-2.748-1.602-2.063-.892-2.956-1.438-3.762-2.317a5.296 5.296 0 0 1-1.1-1.999c-.15-.566-.189-1.986-.071-2.552.424-2 1.933-3.385 4.101-3.795.704-.137 2.344-.085 3.034.085h-.002Zm-9.388 1.674.013 1.633h-5.21v14.8h-3.684v-14.8H9.262v-1.6c0-.893.02-1.635.045-1.655.02-.026 3.184-.038 7.025-.032l6.993.02.02 1.634Z" fill="#454A54"/></g><defs><clipPath id="a"><path fill="#fff" transform="translate(.5 .194)" d="M0 0h40v40H0z"/></clipPath></defs></svg>